Coordinates
version=1
nRows=19
nColumns=33
inDegrees=yes

Units are S.I. units (second, meters, Newtons, ...)
Angles are in degrees.

endheader
time	ground_thorax_rot_x	ground_thorax_rot_y	ground_thorax_rot_z	ground_thorax_tx	ground_thorax_ty	ground_thorax_tz	clav_prot_r	clav_elev_r	scapula_abduction_r	scapula_elevation_r	scapula_upward_rot_r	scapula_winging_r	shoulder_elv_r	plane_of_elev_r	axial_rot_r	elbow_flexion_r	pro_sup_r	wrist_flex_r	wrist_dev_r	clav_prot_l	clav_elev_l	scapula_abduction_l	scapula_elevation_l	scapula_upward_rot_l	scapula_winging_l	shoulder_elv_l	plane_of_elev_l	axial_rot_l	elbow_flexion_l	pro_sup_l	wrist_flex_l	wrist_dev_l
      6.63000000	     26.09865067	     29.58796360	     42.21529834	   -107.99604314	    855.01804890	    -48.46026783	     12.81937770	     33.95911563	     27.04331671	     45.00000000	    -45.00000000	    269.66057840	  -1365.31571214	     21.26765169	   -158.64604067	   2518.52779675	    160.02529242	     16.59802436	     14.26506121	     -6.04016756	    -45.00000000	    -41.11331794	     45.00000000	    -45.00000000	   3706.65734643	  -2439.55457182	     25.51113660	     26.79775601	   1068.06057173	     33.94131236	     14.21847647	    -20.31267193
      6.64000000	     26.09194624	     29.58403402	     42.20859515	   -107.82858941	    854.84538259	    -48.45712249	     12.88915562	     34.00017242	     26.93328420	     45.00000000	    -45.00000000	    269.81442203	  -1365.32555936	     21.23360747	   -158.82200735	   2518.53641984	    159.88595283	     16.74026587	     14.36749856	     -6.25838895	    -45.00000000	    -41.20207442	     45.00000000	    -45.00000000	   3706.59106412	  -2439.58970147	     25.36001518	     26.73875501	   1068.04239393	     33.92901284	     14.23743592	    -20.48358362
      6.65000000	     26.10482330	     29.58638641	     42.26879248	   -107.61353587	    854.67742567	    -48.45728601	     12.78373928	     33.88694493	     27.11852225	     45.00000000	    -45.00000000	    269.68652422	  -1365.45470383	     21.31088900	   -158.83420827	   2518.53169187	    159.84675386	     16.46994944	     14.24256172	     -5.99345450	    -45.00000000	    -40.90015340	     45.00000000	    -45.00000000	   3706.72144037	  -2439.53608824	     25.62519275	     26.75291851	   1067.98580423	     33.99653792	     14.21928890	    -20.24644656
      6.66000000	     26.02816417	     29.67471800	     42.31341870	   -107.35307676	    854.51014870	    -48.46219761	     12.87018275	     34.01604072	     26.96207252	     45.00000000	    -45.00000000	    269.86195764	  -1365.34447664	     21.26415974	   -158.89745001	   2518.55601514	    159.74694928	     16.74570510	     14.35905123	     -6.19486930	    -45.00000000	    -41.06510204	     45.00000000	    -45.00000000	   3706.60320782	  -2439.52850086	     25.50802353	     26.79206715	   1068.03168601	     33.95998797	     14.25579041	    -20.52050706
      6.67000000	     26.10768858	     29.71160766	     42.24345424	   -107.05721466	    854.34652235	    -48.46931992	     12.83941360	     33.90246957	     27.06070760	     45.00000000	    -45.00000000	    269.74134993	  -1365.50963383	     21.28991535	   -158.97360752	   2518.48189192	    159.74897982	     16.51253520	     14.29145578	     -6.12895884	    -45.00000000	    -41.13285673	     45.00000000	    -45.00000000	   3706.62734938	  -2439.69252605	     25.42479541	     26.77699330	   1068.13226988	     33.98775874	     14.16931990	    -20.33089166
      6.68000000	     25.97100141	     29.81391335	     42.44774943	   -106.73007571	    854.18598042	    -48.47574701	     12.89778029	     34.10025815	     26.89319661	     45.00000000	    -45.00000000	    269.95817140	  -1365.39296442	     21.23283835	   -159.03739837	   2518.55351201	    159.68032712	     16.85883791	     14.41259658	     -6.21494124	    -45.00000000	    -41.02406708	     45.00000000	    -45.00000000	   3706.62803408	  -2439.52106148	     25.48199225	     26.81358058	   1067.93468246	     33.98568041	     14.31732040	    -20.60000701
      6.69000000	     26.08139256	     29.83580729	     42.33052226	   -106.37368201	    854.02959836	    -48.47922238	     12.86018183	     33.97940763	     27.03301506	     45.00000000	    -45.00000000	    269.80005968	  -1365.51551553	     21.33127358	   -159.10724076	   2518.49182438	    159.71490535	     16.55744134	     14.30718943	     -6.15245228	    -45.00000000	    -40.98844485	     45.00000000	    -45.00000000	   3706.60768281	  -2439.65364794	     25.54630354	     26.85547625	   1068.05245621	     34.01718225	     14.23329363	    -20.36706109
      6.70000000	     26.00279541	     29.90674674	     42.43462790	   -105.99020900	    853.87989735	    -48.47867080	     12.90659204	     33.99608531	     26.99470358	     45.00000000	    -45.00000000	    269.93756544	  -1365.50597972	     21.23558340	   -159.15481174	   2518.51158150	    159.68866649	     16.76858520	     14.41449982	     -6.23346661	    -45.00000000	    -41.13176397	     45.00000000	    -45.00000000	   3706.57185329	  -2439.62501829	     25.39678359	     26.91143842	   1068.07097687	     33.99072240	     14.27583056	    -20.56107011
      6.71000000	     26.08904338	     29.91847745	     42.42583682	   -105.57716716	    853.73843319	    -48.47437407	     12.85010707	     33.95334097	     27.16767866	     45.00000000	    -45.00000000	    269.79937508	  -1365.59637503	     21.33627218	   -159.20264179	   2518.50373286	    159.71863621	     16.45263140	     14.25158091	     -6.12393491	    -45.00000000	    -40.94233730	     45.00000000	    -45.00000000	   3706.58893067	  -2439.67815537	     25.59395416	     26.92224913	   1068.03193654	     34.05556680	     14.25405949	    -20.29244200
      6.72000000	     26.04044044	     29.99491668	     42.48296075	   -105.13726141	    853.60834883	    -48.46751850	     12.90965000	     34.01179772	     27.04488121	     45.00000000	    -45.00000000	    269.94163168	  -1365.52246560	     21.29259714	   -159.22915466	   2518.52158762	    159.67345914	     16.74139627	     14.40649506	     -6.23100341	    -45.00000000	    -40.98958474	     45.00000000	    -45.00000000	   3706.51625682	  -2439.62079677	     25.55308660	     27.05488100	   1067.99855475	     34.03416453	     14.33644346	    -20.53817053
      6.73000000	     26.03124875	     30.03069437	     42.53221666	   -104.66750842	    853.48977982	    -48.45938944	     12.90855305	     33.98636187	     27.24143068	     45.00000000	    -45.00000000	    269.87106105	  -1365.67921756	     21.25806969	   -159.27524538	   2518.50030330	    159.68905972	     16.48325336	     14.30712661	     -6.23625359	    -45.00000000	    -41.17970766	     45.00000000	    -45.00000000	   3706.50944581	  -2439.72997504	     25.42056546	     27.12007440	   1068.16649110	     34.05608334	     14.25633689	    -20.34896429
      6.74000000	     26.02822956	     30.05733693	     42.59275914	   -104.16918807	    853.38290090	    -48.45096659	     12.94806845	     34.07218559	     27.04427649	     45.00000000	    -45.00000000	    270.04043641	  -1365.50024222	     21.33850157	   -159.25558019	   2518.54069772	    159.61419237	     16.85987767	     14.47503258	     -6.22212542	    -45.00000000	    -40.87945000	     45.00000000	    -45.00000000	   3706.50795577	  -2439.55498530	     25.66472921	     27.20155159	   1067.92568876	     34.07035554	     14.43460826	    -20.62024357
      6.75000000	     26.11786274	     30.13158838	     42.57248128	   -103.64419858	    853.28623204	    -48.44249442	     12.94847532	     34.02411274	     27.18713151	     45.00000000	    -45.00000000	    269.88845476	  -1365.60704676	     21.37458951	   -159.32424307	   2518.49691041	    159.62262714	     16.48175151	     14.33591327	     -6.24707087	    -45.00000000	    -40.98103482	     45.00000000	    -45.00000000	   3706.45888396	  -2439.71356121	     25.57800955	     27.33033953	   1068.08037419	     34.11647902	     14.33218877	    -20.34619463
      6.76000000	     26.04316637	     30.17551054	     42.67311344	   -103.09244256	    853.19614634	    -48.43363448	     12.97727169	     34.04211082	     27.21114578	     45.00000000	    -45.00000000	    270.01206976	  -1365.60378908	     21.27791571	   -159.35499210	   2518.52940944	    159.55416913	     16.75231709	     14.47801311	     -6.28373541	    -45.00000000	    -41.04180006	     45.00000000	    -45.00000000	   3706.42880112	  -2439.65585948	     25.55228869	     27.44350705	   1068.06825084	     34.10794831	     14.40779821	    -20.57026276
      6.77000000	     26.03687007	     30.22095640	     42.75801800	   -102.51615079	    853.10825545	    -48.42348617	     12.96012801	     34.03060355	     27.40657086	     45.00000000	    -45.00000000	    269.91334100	  -1365.73118787	     21.30468429	   -159.42796051	   2518.53770086	    159.55914622	     16.37944881	     14.30927729	     -6.26796240	    -45.00000000	    -41.03210603	     45.00000000	    -45.00000000	   3706.40627479	  -2439.70237096	     25.57297587	     27.51605011	   1068.13159414	     34.17352429	     14.33694995	    -20.28836884
      6.78000000	     26.02730992	     30.25252861	     42.76894775	   -101.91866297	    853.01783247	    -48.41125786	     13.02887099	     34.10438016	     27.24042823	     45.00000000	    -45.00000000	    270.12434351	  -1365.58042088	     21.28622886	   -159.41807489	   2518.57583922	    159.47160232	     16.89619446	     14.60481320	     -6.33311197	    -45.00000000	    -41.04641025	     45.00000000	    -45.00000000	   3706.35758713	  -2439.65709833	     25.59556001	     27.66522839	   1068.04060705	     34.15463599	     14.49477011	    -20.67707597
      6.79000000	     26.09903487	     30.27724379	     42.77239919	   -101.29846241	    852.91949123	    -48.39599161	     13.00163661	     34.08165587	     27.37094011	     45.00000000	    -45.00000000	    269.96304507	  -1365.66286339	     21.43214164	   -159.52253729	   2518.49014387	    159.49489971	     16.42851866	     14.40724337	     -6.31588497	    -45.00000000	    -40.95536846	     45.00000000	    -45.00000000	   3706.31440826	  -2439.74101005	     25.67107900	     27.75472864	   1068.11476196	     34.23210982	     14.39582986	    -20.32927352
      6.80000000	     26.00227388	     30.35021815	     42.93613124	   -100.65806718	    852.80935973	    -48.37724512	     13.05814163	     34.05713588	     27.37949816	     45.00000000	    -45.00000000	    270.08776541	  -1365.65738272	     21.32364585	   -159.57057923	   2518.55199066	    159.44780624	     16.68340048	     14.55391566	     -6.34527896	    -45.00000000	    -41.00883452	     45.00000000	    -45.00000000	   3706.28957816	  -2439.65509432	     25.62573753	     27.87749785	   1068.08272802	     34.22816604	     14.46947668	    -20.52691260
      6.81000000	     25.97355809	     30.37978955	     43.02446083	    -99.99420047	    852.68361077	    -48.35438028	     13.01099970	     34.10417937	     27.58821262	     45.00000000	    -45.00000000	    270.00043879	  -1365.80054288	     21.32023679	   -159.66949691	   2518.53153624	    159.47393050	     16.35382746	     14.40052062	     -6.34150947	    -45.00000000	    -40.99600785	     45.00000000	    -45.00000000	   3706.26652922	  -2439.70980300	     25.66412252	     27.94800382	   1068.16109693	     34.28106753	     14.40485590	    -20.28399916
